HIERARCHY
ROOT hip
{
  OFFSET 0 0 0
  CHANNELS 6 Xposition Yposition Zposition Zrotation Yrotation Xrotation
  JOINT abdomen
  {
    OFFSET 0 20.6881 -0.73152
    CHANNELS 3 Zrotation Xrotation Yrotation
    JOINT chest
    {
      OFFSET 0 11.7043 -0.48768
      CHANNELS 3 Zrotation Xrotation Yrotation
      JOINT neck
      {
        OFFSET 0 22.1894 -2.19456
        CHANNELS 3 Zrotation Xrotation Yrotation
        JOINT head
        {
          OFFSET -0.24384 7.07133 1.2192
          CHANNELS 3 Zrotation Xrotation Yrotation
          JOINT leftEye
          {
            OFFSET 4.14528 8.04674 8.04672
            CHANNELS 3 Zrotation Xrotation Yrotation
            End Site
            {
              OFFSET 1 0 0
            }
          }
          JOINT rightEye
          {
            OFFSET -3.6576 8.04674 8.04672
            CHANNELS 3 Zrotation Xrotation Yrotation
            End Site
            {
              OFFSET 1 0 0
            }
          }
        }
      }
      JOINT rCollar
      {
        OFFSET -2.68224 19.2634 -4.8768
        CHANNELS 3 Zrotation Xrotation Yrotation
        JOINT rShldr
        {
          OFFSET -8.77824 -1.95073 1.46304
          CHANNELS 3 Zrotation Xrotation Yrotation
          JOINT rForeArm
          {
            OFFSET -28.1742 -1.7115 0.48768
            CHANNELS 3 Zrotation Xrotation Yrotation
            JOINT rHand
            {
              OFFSET -22.5879 0.773209 7.07136
              CHANNELS 3 Zrotation Xrotation Yrotation
              JOINT rThumb1
              {
                OFFSET -1.2192 -0.487915 3.41376
                CHANNELS 3 Zrotation Xrotation Yrotation
                JOINT rThumb2
                {
                  OFFSET -3.37035 -0.52449 3.41376
                  CHANNELS 3 Zrotation Xrotation Yrotation
                  End Site
                  {
                    OFFSET -1.78271 -1.18214 1.43049
                  }
                }
              }
              JOINT rIndex1
              {
                OFFSET -7.75947 0.938293 5.60832
                CHANNELS 3 Zrotation Xrotation Yrotation
                JOINT rIndex2
                {
                  OFFSET -2.54057 -0.884171 1.56538
                  CHANNELS 3 Zrotation Xrotation Yrotation
                  End Site
                  {
                    OFFSET -1.62519 -0.234802 1.16502
                  }
                }
              }
              JOINT rMid1
              {
                OFFSET -8.24714 1.18213 3.41376
                CHANNELS 3 Zrotation Xrotation Yrotation
                JOINT rMid2
                {
                  OFFSET -3.10165 -0.590103 1.0647
                  CHANNELS 3 Zrotation Xrotation Yrotation
                  End Site
                  {
                    OFFSET -2.48547 -0.328903 0.83742
                  }
                }
              }
              JOINT rRing1
              {
                OFFSET -8.82822 0.546677 1.51678
                CHANNELS 3 Zrotation Xrotation Yrotation
                JOINT rRing2
                {
                  OFFSET -2.60934 -0.819778 -0.0198488
                  CHANNELS 3 Zrotation Xrotation Yrotation
                  End Site
                  {
                    OFFSET -2.33842 -0.294052 0.168128
                  }
                }
              }
              JOINT rPinky1
              {
                OFFSET -8.27202 -0.0477905 -0.4584
                CHANNELS 3 Zrotation Xrotation Yrotation
                JOINT rPinky2
                {
                  OFFSET -1.82734 -0.647385 -0.700984
                  CHANNELS 3 Zrotation Xrotation Yrotation
                  End Site
                  {
                    OFFSET -1.69225 -0.51767 -0.607171
                  }
                }
              }
            }
          }
        }
      }
      JOINT lCollar
      {
        OFFSET 2.68224 19.2634 -4.8768
        CHANNELS 3 Zrotation Xrotation Yrotation
        JOINT lShldr
        {
          OFFSET 8.77824 -1.95073 1.46304
          CHANNELS 3 Zrotation Xrotation Yrotation
          JOINT lForeArm
          {
            OFFSET 28.1742 -1.7115 0.48768
            CHANNELS 3 Zrotation Xrotation Yrotation
            JOINT lHand
            {
              OFFSET 22.5879 0.773209 7.07136
              CHANNELS 3 Zrotation Xrotation Yrotation
              JOINT lThumb1
              {
                OFFSET 1.2192 -0.487915 3.41376
                CHANNELS 3 Zrotation Xrotation Yrotation
                JOINT lThumb2
                {
                  OFFSET 3.37035 -0.52449 3.41376
                  CHANNELS 3 Zrotation Xrotation Yrotation
                  End Site
                  {
                    OFFSET 1.78271 -1.18214 1.43049
                  }
                }
              }
              JOINT lIndex1
              {
                OFFSET 7.75947 0.938293 5.60832
                CHANNELS 3 Zrotation Xrotation Yrotation
                JOINT lIndex2
                {
                  OFFSET 2.54057 -0.884171 1.56538
                  CHANNELS 3 Zrotation Xrotation Yrotation
                  End Site
                  {
                    OFFSET 1.62519 -0.234802 1.16502
                  }
                }
              }
              JOINT lMid1
              {
                OFFSET 8.24714 1.18213 3.41376
                CHANNELS 3 Zrotation Xrotation Yrotation
                JOINT lMid2
                {
                  OFFSET 3.10165 -0.590103 1.0647
                  CHANNELS 3 Zrotation Xrotation Yrotation
                  End Site
                  {
                    OFFSET 2.48547 -0.328903 0.83742
                  }
                }
              }
              JOINT lRing1
              {
                OFFSET 8.82822 0.546677 1.51678
                CHANNELS 3 Zrotation Xrotation Yrotation
                JOINT lRing2
                {
                  OFFSET 2.60934 -0.819778 -0.0198488
                  CHANNELS 3 Zrotation Xrotation Yrotation
                  End Site
                  {
                    OFFSET 2.33842 -0.294052 0.168128
                  }
                }
              }
              JOINT lPinky1
              {
                OFFSET 8.27202 -0.0477905 -0.4584
                CHANNELS 3 Zrotation Xrotation Yrotation
                JOINT lPinky2
                {
                  OFFSET 1.82734 -0.647385 -0.700984
                  CHANNELS 3 Zrotation Xrotation Yrotation
                  End Site
                  {
                    OFFSET 1.69225 -0.51767 -0.607171
                  }
                }
              }
            }
          }
        }
      }
    }
  }
  JOINT rButtock
  {
    OFFSET -8.77824 4.35084 1.2192
    CHANNELS 3 Zrotation Xrotation Yrotation
    JOINT rThigh
    {
      OFFSET 0 -1.70687 -2.19456
      CHANNELS 3 Zrotation Xrotation Yrotation
      JOINT rShin
      {
        OFFSET 0 -36.8199 0.73152
        CHANNELS 3 Zrotation Xrotation Yrotation
        JOINT rFoot
        {
          OFFSET 0.73152 -45.1104 -5.12064
          CHANNELS 3 Zrotation Xrotation Yrotation
          End Site
          {
            OFFSET -1.1221 -3.69964 12.103
          }
        }
      }
    }
  }
  JOINT lButtock
  {
    OFFSET 8.77824 4.35084 1.2192
    CHANNELS 3 Zrotation Xrotation Yrotation
    JOINT lThigh
    {
      OFFSET 0 -1.70687 -2.19456
      CHANNELS 3 Zrotation Xrotation Yrotation
      JOINT lShin
      {
        OFFSET 0 -36.8199 0.73152
        CHANNELS 3 Zrotation Xrotation Yrotation
        JOINT lFoot
        {
          OFFSET -0.73152 -45.1104 -5.12064
          CHANNELS 3 Zrotation Xrotation Yrotation
          End Site
          {
            OFFSET 1.1221 -3.69964 12.103
          }
        }
      }
    }
  }
}
MOTION
Frames:	4
Frame Time:	0.03333
-6.312700007608654 63.26029684730932 -2.756000009212608 -161.91000366210938 -65.62389373779297 162.78994750976562 0.2301809936761856 10.823801040649414 13.730199813842773 0.39703497290611267 -13.229198455810547 3.8678603172302246 -0.1500519961118698 13.357398986816406 9.87118911743164 5.258739948272705 -19.754199981689453 20.179698944091797 -0.0 0.0 -0.0 -0.0 0.0 -0.0 -1.0110400065982753e-13 -5.644110179225947e-12 -8.930069682853981e-13 53.64289474487305 81.50788116455078 9.850377082824707 -26.388498306274414 -45.48029708862305 94.4533920288086 -47.762794494628906 -80.30841064453125 -55.37869644165039 2.5510797918570915e-09 4.6076600312972005e-09 2.156559819610493e-09 4.224809835307042e-09 8.078499647012904e-09 3.796999603622453e-09 2.5510797918570915e-09 4.6076600312972005e-09 2.1565398355960497e-09 7.730909824371338 5.474879741668701 0.4173140823841095 2.5510797918570915e-09 4.607649817245374e-09 2.1565500496478762e-09 2.9055399894714355 0.9651829600334167 0.10290199518203735 2.5510797918570915e-09 4.607649817245374e-09 2.1565500496478762e-09 10.27859878540039 0.73180091381073 0.025912316516041756 2.5510797918570915e-09 4.607649817245374e-09 2.156559819610493e-09 2.221669912338257 -0.733487069606781 -0.208919957280159 -1.0114099905896359e-13 -5.6441002045659605e-12 -8.932540037503989e-13 -67.42140197753906 7.461790084838867 -34.91910171508789 28.433198928833008 -35.607906341552734 -76.35540008544922 0.460798978805542 18.93230438232422 -2.7631001472473145 -1.1319399861875468e-09 1.2786499636874282e-09 3.404720061439548e-09 -1.9179200450025746e-09 2.204979754338865e-09 5.902589528261615e-09 -1.13195997020199e-09 1.2786599556946499e-09 3.404739823409386e-09 -7.730909824371338 5.474879741668701 -0.4173140823841095 -1.1319399861875468e-09 1.2786599556946499e-09 3.404720061439548e-09 -2.9055399894714355 0.9651829600334167 -0.10290199518203735 -1.131949867172466e-09 1.2786599556946499e-09 3.404720061439548e-09 -10.27859878540039 0.73180091381073 -0.025912316516041756 -1.1319299941803251e-09 1.2786599556946499e-09 3.4047096253431164e-09 -2.221669912338257 -0.733487069606781 0.208919957280159 -2.0321699480147914e-16 0.0 -3.8825099822884138e-19 -14.366799354553223 -36.73729705810547 -25.285097122192383 -9.598847389221191 84.8367691040039 11.02029800415039 -19.9955997467041 -24.61659812927246 -30.415205001831055 2.0321699480147914e-16 0.0 3.8825099822884138e-19 75.83360290527344 -41.381797790527344 71.37039947509766 2.785259962081909 72.94761657714844 -2.654430389404297 0.14275798201560974 3.8198599815368652 -3.740150213241577
-6.389400010429602 63.175301973277676 -2.814000007962906 -161.8719940185547 -65.61872100830078 162.72996520996094 0.22644899785518646 10.821499824523926 13.755597114562988 0.382876992225647 -13.22710132598877 3.873039722442627 -0.15306897461414337 13.354399681091309 9.86531925201416 5.253109931945801 -19.64349937438965 20.155397415161133 -0.0 0.0 -0.0 -0.0 0.0 -0.0 -2.4403900124661537e-13 -4.454619832727769e-12 -9.981219410010178e-13 53.89969253540039 81.50432586669922 9.65042495727539 -26.392196655273438 -45.4723014831543 94.43669891357422 -47.63739776611328 -80.29385375976562 -55.25149917602539 3.849370155961651e-09 5.7417897103562154e-09 2.2437498525818e-09 6.441889688346691e-09 1.0162300334570773e-08 4.020889843303621e-09 3.849379925924268e-09 5.741799924408042e-09 2.2437398605745784e-09 7.730909824371338 5.474879741668701 0.4173140823841095 3.849370155961651e-09 5.741799924408042e-09 2.2437498525818e-09 2.9055399894714355 0.9651829600334167 0.10290199518203735 3.849379925924268e-09 5.7417897103562154e-09 2.2437498525818e-09 10.27859878540039 0.73180091381073 0.025912316516041756 3.849370155961651e-09 5.7417897103562154e-09 2.2437600666336266e-09 2.221669912338257 -0.733487069606781 -0.208919957280159 -2.4405499322865953e-13 -4.454599883407795e-12 -9.983430098239876e-13 -67.43180084228516 7.4580206871032715 -34.95439910888672 28.43389892578125 -35.601806640625 -76.34019470214844 0.46835994720458984 19.080101013183594 -2.7863597869873047 -1.2835900120578003e-09 1.2926900661014429e-09 3.6728400321095478e-09 -2.1792698756684104e-09 2.231260065599372e-09 6.37083985566278e-09 -1.283610107094546e-09 1.292699947086362e-09 3.6728700081312127e-09 -7.730909824371338 5.474879741668701 -0.4173140823841095 -1.2835900120578003e-09 1.2926900661014429e-09 3.6728400321095478e-09 -2.9055399894714355 0.9651829600334167 -0.10290199518203735 -1.283600004065022e-09 1.2926900661014429e-09 3.6728400321095478e-09 -10.27859878540039 0.73180091381073 -0.025912316516041756 -1.2835900120578003e-09 1.2926900661014429e-09 3.6728298180577212e-09 -2.221669912338257 -0.733487069606781 0.208919957280159 -2.0321699480147914e-16 0.0 -3.8825099822884138e-19 -14.341500282287598 -36.72439956665039 -25.26110076904297 -9.929509162902832 84.9976577758789 11.362600326538086 -20.157400131225586 -24.674999237060547 -30.591699600219727 2.0321699480147914e-16 0.0 3.8825099822884138e-19 76.0105972290039 -41.32130432128906 71.46109771728516 2.8304600715637207 73.1500015258789 -2.699350118637085 0.12199098616838455 3.697269916534424 -3.860879898071289
-6.461500007576572 63.0907032502179 -2.8540000069860407 -161.88699340820312 -65.61660766601562 162.74002075195312 0.1994819939136505 10.800701141357422 13.742598533630371 0.38391801714897156 -13.2358980178833 3.874720573425293 -0.15177100896835327 13.329303741455078 9.881609916687012 5.212869644165039 -19.46540069580078 20.163097381591797 -0.0 0.0 -0.0 -0.0 0.0 -0.0 -2.1702798792041372e-13 -3.46630970454731e-12 -8.282100049175622e-13 53.505401611328125 81.58090209960938 10.084700584411621 -26.403799057006836 -45.446998596191406 94.38399505615234 -47.547096252441406 -80.28318786621094 -55.1598014831543 2.3786899117084204e-09 4.204589565404149e-09 1.9144199558951414e-09 3.947049798114222e-09 7.3790098475967625e-09 3.376839696755951e-09 2.3786899117084204e-09 4.204589565404149e-09 1.9144199558951414e-09 7.730909824371338 5.474879741668701 0.4173140823841095 2.3786899117084204e-09 4.204589565404149e-09 1.914429725857758e-09 2.9055399894714355 0.9651829600334167 0.10290199518203735 2.3786899117084204e-09 4.204589565404149e-09 1.914429725857758e-09 10.27859878540039 0.73180091381073 0.025912316516041756 2.3786799197011987e-09 4.204589565404149e-09 1.9144399399095846e-09 2.221669912338257 -0.733487069606781 -0.208919957280159 -2.1701999192939164e-13 -3.4662997298873233e-12 -8.283380491941328e-13 -67.40239715576172 7.362071514129639 -34.9552001953125 28.435495376586914 -35.589595794677734 -76.30939483642578 0.4774109423160553 19.254600524902344 -2.81387996673584 -1.1331799942837506e-09 1.1652698805875161e-09 2.9689199987359416e-09 -1.9254700056592355e-09 2.0112898013735503e-09 5.149769499723789e-09 -1.1331999782981939e-09 1.1652799836170402e-09 2.968959744720223e-09 -7.730909824371338 5.474879741668701 -0.4173140823841095 -1.1331799942837506e-09 1.1652799836170402e-09 2.9689199987359416e-09 -2.9055399894714355 0.9651829600334167 -0.10290199518203735 -1.1331799942837506e-09 1.1652799836170402e-09 2.9689199987359416e-09 -10.27859878540039 0.73180091381073 -0.025912316516041756 -1.1331799942837506e-09 1.1652799836170402e-09 2.9689199987359416e-09 -2.221669912338257 -0.733487069606781 0.208919957280159 -2.0321699480147914e-16 0.0 -3.8825099822884138e-19 -14.330802917480469 -36.7578010559082 -25.203100204467773 -10.29789924621582 85.16487121582031 11.742300987243652 -20.324199676513672 -24.735702514648438 -30.77250099182129 2.0321699480147914e-16 0.0 3.8825099822884138e-19 76.1614990234375 -41.27300262451172 71.56809997558594 2.8785102367401123 73.35870361328125 -2.746450185775757 0.10124198347330093 3.4984800815582275 -3.893929958343506
-6.5240000070924244 62.97590143064833 -2.891000005498806 -161.97900390625 -65.62889862060547 162.8400115966797 0.2253129780292511 10.79590129852295 13.72079849243164 0.37798699736595154 -13.239700317382812 3.8720901012420654 -0.1888979822397232 13.30560302734375 9.910589218139648 5.185040473937988 -19.353300094604492 20.207002639770508 -0.0 0.0 -0.0 -0.0 0.0 -0.0 -1.0477899879115724e-13 -3.206679930270462e-12 -5.954660050634664e-13 52.982303619384766 81.6422348022461 10.582998275756836 -26.410301208496094 -45.433799743652344 94.35639953613281 -47.42219924926758 -80.26848602294922 -55.033203125 1.0884499968000227e-09 2.1027499741421707e-09 1.0017299212350395e-09 1.797579862738985e-09 3.6713299067514527e-09 1.7571799570959001e-09 1.088459877784942e-09 2.1027499741421707e-09 1.0017400242645635e-09 7.730909824371338 5.474879741668701 0.4173140823841095 1.088459877784942e-09 2.1027499741421707e-09 1.0017400242645635e-09 2.9055399894714355 0.9651829600334167 0.10290199518203735 1.088459877784942e-09 2.1027499741421707e-09 1.0017400242645635e-09 10.27859878540039 0.73180091381073 0.025912316516041756 1.0884499968000227e-09 2.1027499741421707e-09 1.0017499052494827e-09 2.221669912338257 -0.733487069606781 -0.208919957280159 -1.0477199891088113e-13 -3.206679930270462e-12 -5.955629869477952e-13 -67.43440246582031 7.26922082901001 -35.00230407714844 28.436798095703125 -35.5818977355957 -76.2886962890625 0.4741900563240051 19.193599700927734 -2.8042399883270264 -6.140870034698764e-10 8.533460049697794e-10 1.9683898955236145e-09 -1.038479968684669e-09 1.4714499618762034e-09 3.4098399659399092e-09 -6.141019914807089e-10 8.533489470607947e-10 1.9684198715452794e-09 -7.730909824371338 5.474879741668701 -0.4173140823841095 -6.140870034698764e-10 8.533499462615168e-10 1.9683898955236145e-09 -2.9055399894714355 0.9651829600334167 -0.10290199518203735 -6.140870034698764e-10 8.533499462615168e-10 1.9683898955236145e-09 -10.27859878540039 0.73180091381073 -0.025912316516041756 -6.14089057382472e-10 8.53350945462239e-10 1.9683898955236145e-09 -2.221669912338257 -0.733487069606781 0.208919957280159 -2.0321699480147914e-16 0.0 -3.8825099822884138e-19 -14.271800994873047 -36.816497802734375 -25.12350082397461 -10.715299606323242 85.3421630859375 12.173598289489746 -20.51569938659668 -24.735998153686523 -31.020299911499023 2.0321699480147914e-16 0.0 3.8825099822884138e-19 76.3750991821289 -41.252296447753906 71.73389434814453 2.9282498359680176 73.57018280029297 -2.7953500747680664 0.08553030341863632 3.3991599082946777 -3.972059726715088
